<svg fill="none" xmlns="http://www.w3.org/2000/svg" viewBox="0 0 40 43">
  <path d="M16 23.4V22c0-.4.3-.7.6-.7h14.2c.3 0 .6.3.6.7v1.3c0 .3-.3.6-.6.6H16.6a.6.6 0 0 1-.6-.6Zm.6 3.2h14.2c.3 0 .6.3.6.6v1.3c0 .4-.3.7-.6.7H16.6a.6.6 0 0 1-.6-.7v-1.3c0-.3.3-.6.6-.6Zm0 5.1h14.2c.3 0 .6.3.6.7v1.3c0 .3-.3.6-.6.6H16.6a.6.6 0 0 1-.6-.6v-1.3c0-.4.3-.7.6-.7Z" fill="#fff"/>
  <path fill-rule="evenodd" clip-rule="evenodd" d="M8.3 15.3A7.4 7.4 0 1 1 15.5 6h12.7c1 0 2.6.6 3.3 1.4l6.3 6.2a6 6 0 0 1 1.3 3.3v23.2c0 1-.8 2-1.9 2h-27c-1 0-2-1-2-2V15.3Zm2.6-.4c2.6-1 4.5-3.4 4.8-6.3h10.6v8.3c0 1.1.8 2 2 2h8.3v20.5H10.9V15Zm18.8-5.7-.8-.5v7.6h7.5l-.4-.8-6.3-6.3ZM9.3 8.9h4v-2h-4v-4h-2v4h-4v2h4v4h2v-4Z" fill="#fff"/>
</svg>
